Coordinates
version=1
nRows=21
nColumns=28
inDegrees=yes

Units are S.I. units (second, meters, Newtons, ...)
Angles are in degrees.

endheader
time	pelvis_tilt	pelvis_list	pelvis_rotation	pelvis_tx	pelvis_ty	pelvis_tz	hip_flexion_r	hip_adduction_r	hip_rotation_r	knee_angle_r	ankle_angle_r	subtalar_angle_r	mtp_angle_r	hip_flexion_l	hip_adduction_l	hip_rotation_l	knee_angle_l	socket_flexion	socket_adduction	socket_rotation	socket_tx	socket_ty	socket_tz	foot_flex	lumbar_extension	lumbar_bending	lumbar_rotation
      0.26666667	      0.64648566	      6.17921795	     -3.32566018	     -0.38686900	      0.98403048	      0.23056308	     13.63824079	    -10.80044917	      1.52591512	    -64.42592240	    -12.24236109	     -9.75299425	     15.61758412	      7.14700756	      7.88695739	      1.83480620	    -22.38669972	     -3.12963868	      0.00000000	      0.00000000	      0.00000000	     -0.00732010	      0.00000000	      4.95239408	     -7.82296143	     -7.54016677	     -3.55492934
      0.27083333	      0.68164891	      5.97848890	     -3.28640650	     -0.38140957	      0.98501403	      0.23038953	     14.41490234	    -10.60560200	      1.51922275	    -64.52881154	    -11.47076191	    -10.08406352	     15.62019474	      6.58286350	      7.70776436	      1.95209954	    -22.15913688	     -3.21322805	      0.00000000	      0.00000000	      0.00000000	     -0.00713738	      0.00000000	      4.90403657	     -7.92222901	     -7.28406332	     -3.75022421
      0.27500000	      0.68695872	      5.77264096	     -3.23784580	     -0.37574930	      0.98599709	      0.23029679	     15.15887553	    -10.36953151	      1.53071020	    -64.53615756	    -10.55752679	    -10.52808447	     15.59160469	      5.98320195	      7.51313269	      2.09462667	    -21.77020794	     -3.19321489	      0.00000000	      0.00000000	      0.00000000	     -0.00698800	      0.00000000	      4.94626834	     -7.94314618	     -7.01628297	     -4.02124076
      0.27916667	      0.89140832	      5.57667010	     -3.31109290	     -0.36957023	      0.98741695	      0.23041673	     15.58764383	    -10.14138981	      1.58682361	    -64.34074941	     -9.87663811	    -11.05311515	     14.87134289	      4.79180512	      7.32014150	      2.27950428	    -20.28877956	     -2.48137049	      0.00000000	      0.00000000	      0.00000000	     -0.00716035	      0.00000000	      4.99068305	     -8.12979276	     -6.76005287	     -4.48229728
      0.28333333	      0.91459951	      5.37163818	     -3.24757988	     -0.36405510	      0.98840037	      0.23032101	     16.28145365	     -9.90453892	      1.56577273	    -64.23059634	     -9.01166897	    -11.42099108	     14.84143072	      4.21949984	      7.12318061	      2.41816370	    -20.02889708	     -2.56580553	      0.00000000	      0.00000000	      0.00000000	     -0.00689875	      0.00000000	      4.98477802	     -8.20819437	     -6.52230105	     -4.59031576
      0.28750000	      0.95120093	      5.13896002	     -3.22012502	     -0.35831254	      0.98945778	      0.23023962	     16.90321195	     -9.63334201	      1.54999251	    -64.00217401	     -8.31340131	    -11.81479038	     14.52685358	      3.45780439	      6.89542781	      2.58201822	    -19.23896641	     -2.28698122	      0.00000000	      0.00000000	      0.00000000	     -0.00684074	      0.00000000	      5.02302255	     -8.27659299	     -6.20558132	     -4.93513516
      0.29166667	      1.20069391	      4.90518876	     -3.24661799	     -0.35235745	      0.99087518	      0.23036437	     17.22460509	     -9.34941323	      1.55162931	    -63.64964043	     -7.53288027	    -12.26389558	     13.68449500	      2.29551978	      6.65613272	      2.77380681	    -17.97668933	     -1.73838847	      0.00000000	      0.00000000	      0.00000000	     -0.00681553	      0.00000000	      5.01195021	     -8.55226862	     -5.93060526	     -5.21105076
      0.29583333	      1.17851685	      4.69564569	     -3.17073184	     -0.34687722	      0.99178080	      0.23026687	     17.89983161	     -9.09146030	      1.51553034	    -63.34468254	     -6.74742386	    -12.59371137	     13.62677028	      1.76959234	      6.44492498	      2.91643958	    -17.69864905	     -1.82109454	      0.00000000	      0.00000000	      0.00000000	     -0.00650237	      0.00000000	      4.98786982	     -8.58363975	     -5.68112322	     -5.33762004
      0.30000000	      1.14713912	      4.51397110	     -3.10196087	     -0.34136135	      0.99261889	      0.23018065	     18.57196420	     -8.88395311	      1.46124234	    -62.98535096	     -6.15510889	    -12.87838438	     13.56935207	      1.23915006	      6.26292971	      3.06538113	    -17.38927879	     -1.90098868	      0.00000000	      0.00000000	      0.00000000	     -0.00615628	      0.00000000	      4.93828361	     -8.58653312	     -5.45455508	     -5.50183550
      0.30416667	      1.15456591	      4.47966834	     -2.98417369	     -0.33634166	      0.99352328	      0.23002353	     19.25269115	     -8.84606787	      1.42860935	    -62.58729969	     -6.04769393	    -12.92671998	     13.56158334	      0.81957759	      6.24644642	      3.12129237	    -17.33868953	     -2.06007592	      0.00000000	      0.00000000	      0.00000000	     -0.00536765	      0.00000000	      4.98677019	     -8.74596785	     -5.43944292	     -5.52952089
      0.30833333	      1.50596370	      3.91116865	     -3.03660031	     -0.32970725	      0.99512945	      0.23033532	     19.16368232	     -8.09129815	      1.39253051	    -61.83438777	     -4.74629961	    -13.68403858	     11.75068608	     -0.87897506	      5.61519072	      3.45632094	    -14.96350775	     -0.84829027	      0.00000000	      0.00000000	      0.00000000	     -0.00602509	      0.00000000	      4.94253418	     -9.04694805	     -4.72975746	     -6.11586078
      0.31250000	      1.42554869	      3.75849577	     -2.93819578	     -0.32423687	      0.99583792	      0.23029342	     19.80729057	     -7.88359690	      1.34331859	    -61.28979681	     -4.16267188	    -13.94079190	     11.71668577	     -1.31870704	      5.45063565	      3.58818848	    -14.75357586	     -1.00182177	      0.00000000	      0.00000000	      0.00000000	     -0.00554110	      0.00000000	      4.87939326	     -8.99871837	     -4.55130201	     -6.25401651
      0.31666667	      1.31202950	      3.49607594	     -2.81415030	     -0.31875494	      0.99649753	      0.23025564	     20.42867978	     -7.52735816	      1.27147521	    -60.66053702	     -3.46184510	    -14.28709798	     11.63085722	     -1.76920041	      5.16026389	      3.77069635	    -14.38521995	     -1.01181501	      0.00000000	      0.00000000	      0.00000000	     -0.00529939	      0.00000000	      4.84769565	     -8.92520167	     -4.23231934	     -6.50406445
      0.32083333	      1.56501598	      3.11730667	     -2.75946804	     -0.31292253	      0.99776739	      0.23032982	     20.52751673	     -7.04286229	      1.18265257	    -59.84524368	     -2.92628317	    -14.67962054	      9.98729369	     -2.98552521	      4.73684481	      3.99304443	    -12.91304697	     -0.32003759	      0.00000000	      0.00000000	      0.00000000	     -0.00524889	      0.00000000	      4.87622816	     -9.25821142	     -3.76525200	     -6.90739074
      0.32500000	      1.43222698	      2.89075160	     -2.62344285	     -0.30750226	      0.99830366	      0.23028167	     21.13133687	     -6.72588980	      1.11173879	    -59.10886726	     -2.33594834	    -14.95968519	      9.88444315	     -3.38186744	      4.47952971	      4.15384546	    -12.62190521	     -0.39116640	      0.00000000	      0.00000000	      0.00000000	     -0.00490765	      0.00000000	      4.84347089	     -9.17723697	     -3.48692547	     -7.12689524
      0.32916667	      1.32632357	      2.61358104	     -2.48588701	     -0.30203357	      0.99884728	      0.23028103	     21.66108456	     -6.35027284	      1.01341407	    -58.29930110	     -1.79958355	    -15.28580267	      9.71069679	     -3.85060228	      4.15810136	      4.34276751	    -12.20982802	     -0.38724026	      0.00000000	      0.00000000	      0.00000000	     -0.00466918	      0.00000000	      4.81234121	     -9.11411461	     -3.16196486	     -7.40767813
      0.33333333	      1.25212900	      2.52493298	     -2.38527322	     -0.29663119	      0.99943569	      0.23028478	     22.16899321	     -6.19341212	      1.00426117	    -57.42998269	     -1.49310667	    -15.45845386	      9.63729922	     -4.27867783	      4.05747215	      4.45692891	    -12.00518720	     -0.53329818	      0.00000000	      0.00000000	      0.00000000	     -0.00399956	      0.00000000	      4.78622177	     -9.08417847	     -3.07401123	     -7.52550563
      0.33750000	      1.42997006	      2.02413889	     -2.20354512	     -0.29076121	      1.00045728	      0.23026162	     22.17387073	     -5.57613755	      0.79188819	    -56.32568356	     -1.07989447	    -16.19877908	      8.46592256	     -5.36680465	      3.47194768	      4.75410067	    -10.66505781	      0.08828809	      0.00000000	      0.00000000	      0.00000000	     -0.00404577	      0.00000000	      4.78805940	     -9.33053673	     -2.42685947	     -8.19930050
      0.34166667	      1.34046882	      1.99101514	     -2.11960698	     -0.28541483	      1.00089604	      0.23034435	     22.67691110	     -5.46194558	      0.82290700	    -55.38470227	     -0.78568540	    -16.29615169	      8.43489095	     -5.73838981	      3.42873683	      4.83013081	    -10.56255228	     -0.12329882	      0.00000000	      0.00000000	      0.00000000	     -0.00327358	      0.00000000	      4.77641757	     -9.29828799	     -2.42255485	     -8.22167531
      0.34583333	      1.19851289	      1.83959299	     -1.99149503	     -0.27996088	      1.00125020	      0.23044296	     23.14164574	     -5.19003947	      0.83452927	    -54.32816520	     -0.31672235	    -16.47949435	      8.38377296	     -6.09277073	      3.23722441	      4.93567432	    -10.37170848	     -0.28127757	      0.00000000	      0.00000000	      0.00000000	     -0.00273497	      0.00000000	      4.73511195	     -9.19353089	     -2.27249793	     -8.30254939
      0.35000000	      1.01675540	      1.21434616	     -1.78948879	     -0.27441057	      1.00142396	      0.23037156	     23.51670384	     -4.41881546	      0.61317352	    -53.13126063	      0.34615899	    -16.92486016	      7.98022391	     -6.55489112	      2.50977908	      5.16973029	     -9.71213467	     -0.07940286	      0.00000000	      0.00000000	      0.00000000	     -0.00319248	      0.00000000	      4.74108789	     -9.06711659	     -1.48576800	     -8.72330052
